<?xml version="1.0" encoding="utf-8"?>
<!-- Generator: Adobe Illustrator 21.0.0, SVG Export Plug-In . SVG Version: 6.00 Build 0)  -->
<svg version="1.1" id="Layer_1" xmlns="http://www.w3.org/2000/svg" xmlns:xlink="http://www.w3.org/1999/xlink" x="0px" y="0px"
	 viewBox="0 0 431.7 251.8" style="enable-background:new 0 0 431.7 251.8;" xml:space="preserve">
<style type="text/css">
	.st0{fill:#1F2756;}
	.st1{fill:#0A1B3F;}
	.st2{font-family:'Tahoma';}
	.st3{font-size:190.87px;}
	.st4{fill:#1A1A1A;}
	.st5{font-size:87.2852px;}
	.st6{fill:#262262;}
	.st7{fill:#FFFFFF;}
	.st8{fill:#FFFFFF;stroke:#FFFFFF;stroke-width:2;stroke-miterlimit:10;}
	.st9{fill:#414042;stroke:#414042;stroke-miterlimit:10;}
</style>
<path class="st0" d="M711.7-27.9H590.1c-3.9,0-7-3.1-7-7v-24.5c0-3.8,3.1-7,7-7h121.7c3.9,0,7,3.2,7,7v24.5
	C718.7-31.1,715.6-27.9,711.7-27.9z"/>
<text transform="matrix(1 0 0 1 678.4865 169.5679)" class="st1 st2" style="font-size:62.8345px;">ISQ</text>
<path class="st1" d="M755.9,192.1h-70.7c-1.7,0-3-1.3-3-3V176c0-1.6,1.3-3,3-3h70.7c1.7,0,3,1.4,3,3v13.2
	C758.9,190.8,757.5,192.1,755.9,192.1z"/>
<path class="st1" d="M388.4,216.8c-3.2,0.6-6-1.3-8.4-3.6c-4.6-4.3-9.3-8.7-13.8-13.2c-12.9-12.9-25.8-25.9-38.6-38.9
	c-1.3-1.3-2.5-2.7-3.7-4c-3.9-4.3-4.2-9.3-2.3-14.4c2.4-6.2,8.6-9.7,15.2-9c2.9,0.3,5.4,1.4,7.5,3.4c7.3,7.2,14.7,14.3,22,21.6
	c9.8,9.7,19.6,19.6,29.3,29.4c1.9,1.9,3.6,4,5.4,6c2,2.2,2.9,4.8,2.9,7.8c0,3.5-1,6.6-3,9.3C398.2,214.8,393.8,216.8,388.4,216.8z"
	/>
<text transform="matrix(1 0 0 1 579.4147 -68.5587)" style="fill:#1D2757; font-family:'TrajanPro3-Regular'; font-size:74.8604px;">ISQ</text>
<text transform="matrix(1 0 0 1 584.9004 -34.9764)" class="st7" style="font-family:'MyriadPro-Regular'; font-size:38.1507px;">explorer</text>
<text transform="matrix(1 0 0 1 580.4147 -68.5587)" style="fill:none;stroke:#1D2757;stroke-miterlimit:10; font-family:'TrajanPro3-Regular'; font-size:74.8604px;">ISQ</text>
<g>
	<text transform="matrix(1 0 0 1 24.2336 164.1213)" class="st1 st2 st3">IS</text>
</g>
<text transform="matrix(1 0 0 1 32.4699 226.9279)" class="st4 st2 st5">explorer</text>
<g>
	<path class="st1" d="M203.4,89.5c0.2-1.8,0.4-3.6,0.6-5.4c1.4-10.9,5.1-21,11.1-30.2c10.9-16.7,26.1-27.2,45.5-31.9
		c6.4-1.6,12.9-2.2,19.5-1.9c15.6,0.7,29.8,5.8,42.1,15.5c15.1,11.8,24.1,27.4,27.5,46.2c0.7,4.1,0.6,8.5,0.7,12.7
		c0.4,17.7-6,33.1-17.1,46.6c-10.5,12.8-24.1,20.8-40.3,24.5c-7.4,1.7-14.9,2.2-22.5,1.5c-15.1-1.4-28.5-6.9-40.2-16.5
		c-10.8-8.9-18.6-19.8-23-33.1c-2-6.1-3.3-12.4-3.7-18.9c0-0.3-0.1-0.6-0.2-1C203.4,94.7,203.4,92.1,203.4,89.5z M275.8,30.6
		c-4.6-0.4-10.7,0.6-16.7,2.3c-24.2,6.9-43.6,30.7-44.8,54.8c-0.3,5.8-0.5,11.6,0.6,17.3c2.4,12.2,7.7,23,16.4,31.9
		c15.9,16.1,35.1,22.4,57.4,18.5c14.6-2.6,26.8-9.6,36.2-21c12.8-15.4,17.6-33.1,14-52.8c-2-11-6.7-20.9-14.2-29.3
		C312.2,38.2,296.6,30.7,275.8,30.6z"/>
	<path class="st1" d="M276.9,168.6c-2.2,0-4.4-0.1-6.6-0.3c-15.3-1.4-29.1-7.1-41-16.9c-11.2-9.2-19.1-20.6-23.5-33.8
		c-2.1-6.4-3.4-12.8-3.8-19.3c0-0.1,0-0.3-0.1-0.4l-0.1-0.6l0-8.1l0.2-1.7c0.1-1.2,0.3-2.5,0.4-3.7c1.4-11.1,5.2-21.5,11.3-30.9
		c10.9-16.8,26.5-27.7,46.4-32.5c6.6-1.6,13.3-2.3,19.9-2c16.1,0.8,30.6,6.1,42.9,15.8c15.1,11.9,24.6,27.7,28,47.1
		c0.6,3.4,0.6,6.9,0.7,10.3c0,0.9,0,1.8,0,2.6c0.3,17.1-5.5,33.1-17.4,47.5c-10.5,12.7-24.3,21.1-41.1,25
		C287.9,168,282.4,168.6,276.9,168.6z M204.8,97.2c0.1,0.5,0.2,0.8,0.2,1c0.4,6.2,1.6,12.4,3.6,18.5c4.2,12.7,11.8,23.6,22.6,32.5
		c11.4,9.4,24.7,14.9,39.4,16.2c7.4,0.7,14.8,0.2,22-1.5c16.1-3.7,29.4-11.8,39.5-24c11.4-13.9,17.1-29.2,16.7-45.6
		c0-0.9,0-1.8,0-2.7c0-3.3-0.1-6.7-0.6-9.8c-3.3-18.6-12.4-33.9-27-45.3c-11.9-9.3-25.7-14.4-41.2-15.1c-6.3-0.3-12.8,0.3-19.1,1.9
		c-19.1,4.7-34.1,15.2-44.6,31.3c-5.8,9-9.5,19-10.8,29.6c-0.2,1.2-0.3,2.4-0.4,3.7l-0.2,1.7V97.2z M276.2,158.1
		c-17.3,0-32.7-6.7-45.8-20c-8.6-8.7-14.3-19.7-16.8-32.6c-1.2-6.1-0.9-12.5-0.7-17.7c1.2-24.9,20.9-49.1,45.8-56.2
		c4.8-1.4,11.7-2.9,17.2-2.4c20.4,0,36.8,7.3,50,22.2c7.5,8.5,12.4,18.6,14.5,30c3.7,20-1.1,38.2-14.3,54
		c-9.7,11.6-22.1,18.8-37.1,21.5C284.6,157.7,280.3,158.1,276.2,158.1z M273.6,32c-3.8,0-8.6,0.8-14.1,2.4
		c-23.8,6.8-42.6,29.8-43.7,53.5c-0.3,6.4-0.4,11.6,0.6,17c2.5,12.3,7.9,22.8,16.1,31.1c15.6,15.8,34.5,21.9,56.1,18.1
		c14.2-2.5,26.1-9.4,35.3-20.5c12.6-15.1,17.2-32.5,13.7-51.6c-2-10.9-6.6-20.5-13.8-28.6C311,39,295.3,32.1,275.8,32.1l-0.1,0
		C275,32,274.3,32,273.6,32z"/>
</g>
<path class="st4" d="M224,92.2c-0.5-7.7,2.1-15.4,5.7-23c0.4-0.8,0.9-1.6,1.4-2.3c1-1.3,2.4-1.8,4-1.3c1.8,0.6,2.7,2.2,2.1,4.1
	c-0.5,1.4-1.1,2.8-1.8,4.1c-3.8,7.9-5.2,16.2-4.2,24.8c2.2,17.7,11.7,30.1,27.9,37.4c6.5,3,13.4,4.1,20.5,3.7
	c2.8-0.2,5.5-0.8,8.3-1.2c0.6-0.1,1.2-0.2,1.7-0.2c1.5-0.1,3,0.7,3.5,2.1c0.5,1.4,0.1,3.2-1.2,3.9c-1.5,0.7-3.1,1.3-4.7,1.5
	c-10.2,1.7-20.2,1.1-29.9-2.9c-16.3-6.7-26.7-18.7-31.6-35.5C224.2,102.6,224,97.8,224,92.2z"/>
<path class="st6" d="M698.9,102.6h-84.5c-6.6,0-12-5.4-12-12V6.1c0-6.6,5.4-12,12-12h84.5c6.6,0,12,5.4,12,12v84.5
	C710.9,97.2,705.5,102.6,698.9,102.6z"/>
<g>
	<text transform="matrix(1 0 0 1 606.8964 62.2248)" class="st7 st2" style="font-size:63.2469px;">ISQ</text>
	<text transform="matrix(1 0 0 1 606.8959 81.9426)" class="st7 st2" style="font-size:16.8997px;">EXPLORER</text>
	<rect x="590.9" y="65.4" class="st7" width="94" height="1.5"/>
</g>
<text transform="matrix(1.1311 0 0 1 683.7804 187.9058)" class="st7 st2" style="font-size:13.8165px;">EXPLORER</text>
<path class="st1" d="M667.9,194.8h-49c-6.6,0-12-5.4-12-12v-49c0-6.6,5.4-12,12-12h49c6.6,0,12,5.4,12,12v49
	C679.9,189.4,674.5,194.8,667.9,194.8z"/>
<g>
	<path class="st7" d="M669,188.1c-1,0.2-1.8-0.4-2.5-1.1c-1.4-1.3-2.8-2.6-4.2-4c-3.9-3.9-7.8-7.8-11.7-11.7
		c-0.4-0.4-0.8-0.8-1.1-1.2c-1.2-1.3-1.3-2.8-0.7-4.4c0.7-1.9,2.6-2.9,4.6-2.7c0.9,0.1,1.6,0.4,2.3,1c2.2,2.2,4.4,4.3,6.6,6.5
		c3,2.9,5.9,5.9,8.8,8.9c0.6,0.6,1.1,1.2,1.6,1.8c0.6,0.7,0.9,1.4,0.9,2.4c0,1.1-0.3,2-0.9,2.8C671.9,187.4,670.6,188.1,669,188.1z"
		/>
	<path class="st8" d="M613.1,149.6c0.1-0.5,0.1-1.1,0.2-1.6c0.4-3.3,1.5-6.3,3.3-9.1c3.3-5,7.9-8.2,13.7-9.6
		c1.9-0.5,3.9-0.7,5.9-0.6c4.7,0.2,9,1.7,12.7,4.7c4.6,3.6,7.3,8.3,8.3,14c0.2,1.3,0.2,2.6,0.2,3.8c0.1,5.4-1.8,10-5.2,14.1
		c-3.2,3.9-7.3,6.3-12.2,7.4c-2.2,0.5-4.5,0.7-6.8,0.5c-4.6-0.4-8.6-2.1-12.1-5c-3.2-2.7-5.6-6-6.9-10c-0.6-1.9-1-3.8-1.1-5.7
		c0-0.1,0-0.2-0.1-0.3C613.1,151.2,613.1,150.4,613.1,149.6z M635,131.8c-1.4-0.1-3.2,0.2-5.1,0.7c-7.3,2.1-13.2,9.3-13.5,16.6
		c-0.1,1.7-0.1,3.5,0.2,5.2c0.7,3.7,2.3,6.9,5,9.6c4.8,4.9,10.6,6.8,17.3,5.6c4.4-0.8,8.1-2.9,10.9-6.3c3.9-4.6,5.3-10,4.2-16
		c-0.6-3.3-2-6.3-4.3-8.8C646,134.1,641.3,131.8,635,131.8z"/>
</g>
<g>
	<g>
		<path class="st9" d="M649.3,280.8c-0.5,0.1-0.9-0.2-1.3-0.5c-0.7-0.6-1.4-1.3-2-2c-1.9-1.9-3.8-3.8-5.7-5.8
			c-0.2-0.2-0.4-0.4-0.6-0.6c-0.6-0.6-0.6-1.4-0.3-2.1c0.4-0.9,1.3-1.4,2.3-1.3c0.4,0,0.8,0.2,1.1,0.5c1.1,1.1,2.2,2.1,3.3,3.2
			c1.5,1.4,2.9,2.9,4.4,4.4c0.3,0.3,0.5,0.6,0.8,0.9c0.3,0.3,0.4,0.7,0.4,1.2c0,0.5-0.1,1-0.4,1.4
			C650.7,280.5,650.1,280.8,649.3,280.8z"/>
		<path class="st9" d="M621.8,261.9c0-0.3,0.1-0.5,0.1-0.8c0.2-1.6,0.8-3.1,1.6-4.5c1.6-2.5,3.9-4,6.8-4.7c1-0.2,1.9-0.3,2.9-0.3
			c2.3,0.1,4.4,0.9,6.3,2.3c2.2,1.8,3.6,4.1,4.1,6.9c0.1,0.6,0.1,1.3,0.1,1.9c0.1,2.6-0.9,4.9-2.5,6.9c-1.6,1.9-3.6,3.1-6,3.6
			c-1.1,0.3-2.2,0.3-3.3,0.2c-2.2-0.2-4.2-1-6-2.5c-1.6-1.3-2.8-2.9-3.4-4.9c-0.3-0.9-0.5-1.8-0.6-2.8c0,0,0-0.1,0-0.1
			C621.8,262.7,621.8,262.3,621.8,261.9z M632.5,253.2c-0.7-0.1-1.6,0.1-2.5,0.3c-3.6,1-6.5,4.6-6.7,8.1c0,0.9-0.1,1.7,0.1,2.6
			c0.4,1.8,1.1,3.4,2.4,4.7c2.4,2.4,5.2,3.3,8.5,2.7c2.2-0.4,4-1.4,5.4-3.1c1.9-2.3,2.6-4.9,2.1-7.9c-0.3-1.6-1-3.1-2.1-4.4
			C638,254.3,635.6,253.2,632.5,253.2z"/>
	</g>
</g>
<text transform="matrix(1 0 0 1 652.9321 280.9439)"><tspan x="0" y="0" style="font-family:'Bahnschrift'; font-size:39.3161px;">ISQ</tspan><tspan x="60.9" y="0" style="fill:#414042; font-family:'Bahnschrift'; font-size:39.3161px;">EXPLORER</tspan></text>
<rect x="651.3" y="282.5" width="258.3" height="2.5"/>
</svg>
